<svg width="164" height="50" viewBox="0 0 164 50" fill="none" xmlns="http://www.w3.org/2000/svg">
<path d="M40 0H10C4.47715 0 0 4.47715 0 10V40C0 45.5228 4.47715 50 10 50H40C45.5228 50 50 45.5228 50 40V10C50 4.47715 45.5228 0 40 0Z" fill="#2CB1BC"/>
<path d="M26.0039 9.5625H31.8633V29.25C31.8633 31.0599 31.4596 32.6615 30.6523 34.0547C29.8581 35.4349 28.7318 36.5026 27.2734 37.2578C25.8151 38.013 24.168 38.3906 22.332 38.3906C19.3242 38.3906 16.9805 37.6289 15.3008 36.1055C13.6211 34.569 12.7812 32.401 12.7812 29.6016H18.6797C18.6797 30.9948 18.9727 32.0234 19.5586 32.6875C20.1445 33.3516 21.069 33.6836 22.332 33.6836C23.4518 33.6836 24.3438 33.2995 25.0078 32.5312C25.6719 31.763 26.0039 30.6693 26.0039 29.25V9.5625Z" fill="white"/>
<path d="M66.5057 15.5455H70.1534V27.7159C70.1534 28.8409 69.9006 29.8182 69.3949 30.6477C68.8949 31.4773 68.1989 32.1165 67.3068 32.5653C66.4148 33.0142 65.3778 33.2386 64.196 33.2386C63.1449 33.2386 62.1903 33.054 61.3324 32.6847C60.4801 32.3097 59.804 31.7415 59.304 30.9801C58.804 30.2131 58.5568 29.25 58.5625 28.0909H62.2358C62.2472 28.5511 62.3409 28.946 62.517 29.2756C62.6989 29.5994 62.946 29.8494 63.2585 30.0256C63.5767 30.196 63.9517 30.2812 64.3835 30.2812C64.8381 30.2812 65.2216 30.1847 65.5341 29.9915C65.8523 29.7926 66.0938 29.5028 66.2585 29.1222C66.4233 28.7415 66.5057 28.2727 66.5057 27.7159V15.5455ZM79.0511 33.2557C77.7273 33.2557 76.5824 32.9744 75.6165 32.4119C74.6563 31.8437 73.9148 31.054 73.392 30.0426C72.8693 29.0256 72.608 27.8466 72.608 26.5057C72.608 25.1534 72.8693 23.9716 73.392 22.9602C73.9148 21.9432 74.6563 21.1534 75.6165 20.5909C76.5824 20.0227 77.7273 19.7386 79.0511 19.7386C80.375 19.7386 81.517 20.0227 82.4773 20.5909C83.4432 21.1534 84.1875 21.9432 84.7102 22.9602C85.233 23.9716 85.4943 25.1534 85.4943 26.5057C85.4943 27.8466 85.233 29.0256 84.7102 30.0426C84.1875 31.054 83.4432 31.8437 82.4773 32.4119C81.517 32.9744 80.375 33.2557 79.0511 33.2557ZM79.0682 30.4432C79.6705 30.4432 80.1733 30.2727 80.5767 29.9318C80.9801 29.5852 81.2841 29.1136 81.4886 28.517C81.6989 27.9205 81.804 27.2415 81.804 26.4801C81.804 25.7188 81.6989 25.0398 81.4886 24.4432C81.2841 23.8466 80.9801 23.375 80.5767 23.0284C80.1733 22.6818 79.6705 22.5085 79.0682 22.5085C78.4602 22.5085 77.9489 22.6818 77.5341 23.0284C77.125 23.375 76.8153 23.8466 76.6051 24.4432C76.4006 25.0398 76.2983 25.7188 76.2983 26.4801C76.2983 27.2415 76.4006 27.9205 76.6051 28.517C76.8153 29.1136 77.125 29.5852 77.5341 29.9318C77.9489 30.2727 78.4602 30.4432 79.0682 30.4432ZM87.9233 33V15.5455H91.554V22.108H91.6648C91.8239 21.7557 92.054 21.3977 92.3551 21.0341C92.6619 20.6648 93.0597 20.358 93.5483 20.1136C94.0426 19.8636 94.6563 19.7386 95.3892 19.7386C96.3438 19.7386 97.2244 19.9886 98.0312 20.4886C98.8381 20.983 99.483 21.7301 99.9659 22.7301C100.449 23.7244 100.69 24.9716 100.69 26.4716C100.69 27.9318 100.455 29.1648 99.983 30.1705C99.517 31.1705 98.8807 31.929 98.0739 32.446C97.2727 32.9574 96.375 33.2131 95.3807 33.2131C94.6761 33.2131 94.0767 33.0966 93.5824 32.8636C93.0938 32.6307 92.6932 32.3381 92.3807 31.9858C92.0682 31.6278 91.8295 31.267 91.6648 30.9034H91.5028V33H87.9233ZM91.4773 26.4545C91.4773 27.233 91.5852 27.9119 91.8011 28.4915C92.017 29.071 92.3295 29.5227 92.7386 29.8466C93.1477 30.1648 93.6449 30.3239 94.2301 30.3239C94.821 30.3239 95.321 30.1619 95.7301 29.8381C96.1392 29.5085 96.4489 29.054 96.6591 28.4744C96.875 27.8892 96.983 27.2159 96.983 26.4545C96.983 25.6989 96.8778 25.0341 96.6676 24.4602C96.4574 23.8864 96.1477 23.4375 95.7386 23.1136C95.3295 22.7898 94.8267 22.6278 94.2301 22.6278C93.6392 22.6278 93.1392 22.7841 92.7301 23.0966C92.3267 23.4091 92.017 23.8523 91.8011 24.4261C91.5852 25 91.4773 25.6761 91.4773 26.4545ZM114.005 23.642L110.681 23.8466C110.624 23.5625 110.502 23.3068 110.315 23.0795C110.127 22.8466 109.88 22.6619 109.573 22.5256C109.272 22.3835 108.911 22.3125 108.491 22.3125C107.928 22.3125 107.454 22.4318 107.067 22.6705C106.681 22.9034 106.488 23.2159 106.488 23.608C106.488 23.9205 106.613 24.1847 106.863 24.4006C107.113 24.6165 107.542 24.7898 108.15 24.9205L110.519 25.3977C111.792 25.6591 112.741 26.0795 113.366 26.6591C113.991 27.2386 114.303 28 114.303 28.9432C114.303 29.8011 114.05 30.554 113.545 31.2017C113.045 31.8494 112.357 32.3551 111.482 32.7188C110.613 33.0767 109.61 33.2557 108.474 33.2557C106.741 33.2557 105.36 32.8949 104.332 32.1733C103.309 31.446 102.71 30.4574 102.533 29.2074L106.104 29.0199C106.212 29.5483 106.474 29.9517 106.888 30.2301C107.303 30.5028 107.835 30.6392 108.482 30.6392C109.119 30.6392 109.63 30.517 110.016 30.2727C110.408 30.0227 110.607 29.7017 110.613 29.3097C110.607 28.9801 110.468 28.7102 110.195 28.5C109.923 28.2841 109.502 28.1193 108.934 28.0057L106.667 27.554C105.388 27.2983 104.437 26.8551 103.812 26.2244C103.192 25.5937 102.883 24.7898 102.883 23.8125C102.883 22.9716 103.11 22.2472 103.565 21.6392C104.025 21.0312 104.67 20.5625 105.499 20.233C106.335 19.9034 107.312 19.7386 108.431 19.7386C110.085 19.7386 111.386 20.0881 112.335 20.7869C113.289 21.4858 113.846 22.4375 114.005 23.642ZM123.553 19.9091V22.6364H115.669V19.9091H123.553ZM117.459 16.7727H121.089V28.9773C121.089 29.3125 121.141 29.5739 121.243 29.7614C121.345 29.9432 121.487 30.071 121.669 30.1449C121.857 30.2187 122.072 30.2557 122.317 30.2557C122.487 30.2557 122.658 30.2415 122.828 30.2131C122.999 30.179 123.129 30.1534 123.22 30.1364L123.791 32.8381C123.609 32.8949 123.354 32.9602 123.024 33.0341C122.695 33.1136 122.294 33.1619 121.822 33.179C120.947 33.2131 120.18 33.0966 119.521 32.8295C118.868 32.5625 118.359 32.1477 117.996 31.5852C117.632 31.0227 117.453 30.3125 117.459 29.4545V16.7727ZM131.743 33.2557C130.396 33.2557 129.237 32.983 128.266 32.4375C127.3 31.8864 126.555 31.108 126.033 30.1023C125.51 29.0909 125.249 27.8949 125.249 26.5142C125.249 25.1676 125.51 23.9858 126.033 22.9688C126.555 21.9517 127.291 21.1591 128.24 20.5909C129.195 20.0227 130.314 19.7386 131.598 19.7386C132.462 19.7386 133.266 19.8778 134.01 20.1562C134.76 20.429 135.413 20.8409 135.97 21.392C136.533 21.9432 136.97 22.6364 137.283 23.4716C137.595 24.3011 137.751 25.2727 137.751 26.3864V27.3835H126.697V25.1335H134.334C134.334 24.6108 134.22 24.1477 133.993 23.7443C133.766 23.3409 133.45 23.0256 133.047 22.7983C132.649 22.5653 132.186 22.4489 131.658 22.4489C131.107 22.4489 130.618 22.5767 130.192 22.8324C129.771 23.0824 129.442 23.4205 129.203 23.8466C128.964 24.267 128.842 24.7358 128.837 25.2528V27.392C128.837 28.0398 128.956 28.5994 129.195 29.071C129.439 29.5426 129.783 29.9062 130.226 30.1619C130.669 30.4176 131.195 30.5455 131.803 30.5455C132.206 30.5455 132.575 30.4886 132.911 30.375C133.246 30.2614 133.533 30.0909 133.771 29.8636C134.01 29.6364 134.192 29.358 134.317 29.0284L137.675 29.25C137.504 30.0568 137.155 30.7614 136.626 31.3636C136.104 31.9602 135.428 32.4261 134.598 32.7614C133.774 33.0909 132.822 33.2557 131.743 33.2557ZM140.121 33V19.9091H143.641V22.1932H143.777C144.016 21.3807 144.416 20.767 144.979 20.3523C145.541 19.9318 146.189 19.7216 146.922 19.7216C147.104 19.7216 147.3 19.733 147.51 19.7557C147.72 19.7784 147.905 19.8097 148.064 19.8494V23.071C147.893 23.0199 147.658 22.9744 147.357 22.9347C147.055 22.8949 146.78 22.875 146.53 22.875C145.996 22.875 145.518 22.9915 145.098 23.2244C144.683 23.4517 144.354 23.7699 144.109 24.179C143.871 24.5881 143.751 25.0597 143.751 25.5938V33H140.121Z" fill="#2CB1BC"/>
</svg>
